<svg id="Figura" xmlns="http://www.w3.org/2000/svg" xmlns:xlink="http://www.w3.org/1999/xlink" viewBox="0 0 432 576"><defs><style>.cls-1{fill:url(#Degradado_sin_nombre_2);}</style><linearGradient id="Degradado_sin_nombre_2" x1="8075.57" y1="7064.34" x2="8541.59" y2="6598.31" gradientUnits="userSpaceOnUse"><stop offset="0" stop-color="#9a0000"/><stop offset="1" stop-color="#dd2476"/></linearGradient></defs><title>Logo-MrNizzy</title><path id="Icono" class="cls-1" d="M8537.5,6638.4c-.06-59.81-49.41-107.9-109.21-107.9h-93.11a33,33,0,0,0-23.35,9.67l-50.55,50.55a16.65,16.65,0,0,1-23.56,0l-50.53-50.53a33.1,33.1,0,0,0-23.4-9.69h-37.93a20.37,20.37,0,0,0-20.36,20.36v318.76a20.88,20.88,0,0,0,20.88,20.88h31a20.17,20.17,0,0,1,20.16,20.16v103.88a20,20,0,0,1-20,20h-31.68a20.37,20.37,0,0,0-20.36,20.36v30.76a20.88,20.88,0,0,0,20.88,20.88h246.44a20.68,20.68,0,0,0,20.68-20.68V6991.1a6.75,6.75,0,0,1,12.79-3L8460,7095.42a20,20,0,0,0,17.92,11.08h38.94a20.68,20.68,0,0,0,20.68-20.68V6782.5a107.61,107.61,0,0,0-27.5-72A107.58,107.58,0,0,0,8537.5,6638.4Zm-355.2,39.7,27.46,20.6a4.05,4.05,0,0,1,.43,6.11l-27.48,27.48a3.05,3.05,0,0,1-5.21-2.16V6680.5A3,3,0,0,1,8182.3,6678.1Zm139.2,331.4a25,25,0,0,1-25,25h-22a25,25,0,0,1-25-25v-94a25,25,0,0,1,25-25h22a25,25,0,0,1,25,25Zm0-201.6a10.61,10.61,0,0,1-10.6,10.6H8203.1a10.6,10.6,0,0,1-7.5-18.1l107.8-107.8a10.6,10.6,0,0,1,18.1,7.49Zm144,126.79a6.57,6.57,0,0,1-12.44,2.93l-56.67-113.34a27.37,27.37,0,0,1-2.89-12.24v-38.18a27.36,27.36,0,0,1,27.36-27.36h17.28a27.36,27.36,0,0,1,27.36,27.36Zm-33.66-260.26a36,36,0,1,1,33.59-33.59A36,36,0,0,1,8431.84,6674.43Z" transform="translate(-8105.5 -6530.5)"/></svg>